# xmcd CD database file
#
# Track frame offsets:
#	150
#	13752
#	31392
#	42600
#	64200
#	77175
#	94560
#	111122
#	124912
#	143552
#	160007
#	173672
#	188540
#	205625
#	224560
#	239022
#	257005
#
# Disc length: 3656 seconds
#
# Revision: 0
# Processed by: cddbd v1.4PL0 Copyright (c) Steve Scherf et al.
# Submitted via: CD2WAV32(EN) R3.19
#
DISCID=eb0e4611
DTITLE=Carol King - Premium Best
DYEAR=1900
DGENRE=
TTITLE0=I Feel The Earth Move
TTITLE1=It's Too Late
TTITLE2=Bitter With The Sweet
TTITLE3=Way Over Yonder
TTITLE4=Carry Your Load
TTITLE5=Music
TTITLE6=Been To Canaan
TTITLE7=That's How Things Go Down
TTITLE8=Corazon
TTITLE9=Nightingale
TTITLE10=Brother Brother
TTITLE11=Sweet Seasons
TTITLE12=Jazzman
TTITLE13=Will You Love Me Tomorrow?
TTITLE14=So Many Ways
TTITLE15=So Far Away
TTITLE16=A Natural Woman
EXTD=
EXTT0=
EXTT1=
EXTT2=
EXTT3=
EXTT4=
EXTT5=
EXTT6=
EXTT7=
EXTT8=
EXTT9=
EXTT10=
EXTT11=
EXTT12=
EXTT13=
EXTT14=
EXTT15=
EXTT16=
PLAYORDER=
